# xmcd
#
# Track frame offsets:
#	150
#	20478
#	40776
#	63713
#	90042
#	131543
#	157377
#	176934
#	208530
#	232047
#	261133
#	291446
#	310553
#
# Disc length: 4460 seconds
#
# Revision: 0
# Processed by: cddbd v1.5.2PL0 Copyright (c) Steve Scherf et al.
# Submitted via: EZCDAudioConverter 2.1.7.1
#
DISCID=b9116a0d
DTITLE=V/A - The Yellow Collection
DYEAR=1900
DGENRE=
TTITLE0=Atella - Mechanical Sparrow
TTITLE1=Nteibint featuring Rush Midnight - By Your Side
TTITLE2=Du Tonc - We Can Hold On [Satin Jackets Dub]
TTITLE3=Middleskyboom featuring Eliezer - Slow With The Run
TTITLE4=Man Power - Fisky
TTITLE5=Luxxury - Breathe
TTITLE6=Horixon featuring Else Born - Colours
TTITLE7=Vinny Villbass - The Itch
TTITLE8=Blackie and The Oohoos - Aphexy
TTITLE9=Zombies In Miami - El Wild
TTITLE10=This Soft Machine - It's Operational
TTITLE11=James Curd and Turbotito - You Could Be Floating
TTITLE12=Go March - Rise
EXTD=
EXTT0=
EXTT1=
EXTT2=
EXTT3=
EXTT4=
EXTT5=
EXTT6=
EXTT7=
EXTT8=
EXTT9=
EXTT10=
EXTT11=
EXTT12=
PLAYORDER=
